<?xml version="1.0" standalone="no"?>
<!DOCTYPE svg PUBLIC "-//W3C//DTD SVG 20010904//EN"
 "http://www.w3.org/TR/2001/REC-SVG-20010904/DTD/svg10.dtd">
<svg version="1.0"
  xmlns="http://www.w3.org/2000/svg"
  width="56"
  height="56"
  viewBox="0 0 548 293"
  preserveAspectRatio="xMidYMid meet">

<g transform="translate(0.000000,293.000000) scale(0.100000,-0.100000)"
fill="#000000" stroke="none">
<path d="M3396 2903 c-3 -4 -39 -7 -79 -8 -182 -4 -427 -143 -538 -306 -22
-33 -43 -59 -47 -59 -4 0 -51 22 -105 49 -54 27 -120 54 -148 60 -61 13 -170
14 -226 1 -65 -15 -139 -67 -174 -121 -35 -55 -36 -56 -169 -63 -174 -10 -477
-67 -650 -121 -142 -45 -333 -132 -412 -189 -111 -78 -202 -189 -257 -308 -11
-26 -25 -49 -29 -52 -5 -3 -24 9 -42 26 -19 17 -66 46 -105 65 -64 31 -75 34
-130 28 -113 -12 -191 -63 -243 -158 -19 -36 -21 -52 -16 -107 34 -391 91
-642 171 -752 36 -50 101 -102 173 -138 35 -18 59 -22 117 -21 48 1 82 -3 100
-13 27 -15 198 -142 320 -239 l60 -48 7 -100 c7 -107 18 -139 63 -180 46 -43
142 -109 178 -125 63 -26 178 -13 302 33 39 14 48 14 107 -1 122 -30 289 -41
442 -28 205 18 695 115 974 193 106 30 199 34 327 15 354 -53 729 -79 835 -57
73 16 156 73 183 126 15 31 20 60 20 124 l0 84 55 18 c30 11 64 23 75 29 11 5
31 14 45 19 14 5 63 37 109 72 46 35 98 74 115 86 17 12 58 52 91 88 l61 66
44 -16 c25 -9 73 -16 108 -16 143 1 268 104 329 272 23 61 27 91 28 170 0 93
-1 99 -40 175 -49 96 -112 151 -200 178 -33 9 -66 20 -73 24 -8 4 -31 59 -51
122 -21 63 -52 140 -68 170 -105 195 -171 288 -289 413 -55 57 -55 58 -43 94
40 121 -44 263 -197 335 -101 47 -174 56 -291 33 -126 -24 -136 -23 -272 13
-63 17 -153 36 -200 41 -96 12 -334 15 -345 4z m449 -53 c159 -31 236 -55 363
-115 215 -103 426 -266 581 -450 201 -238 308 -475 332 -730 21 -218 -26 -390
-166 -605 -114 -177 -308 -326 -500 -384 l-70 -22 -37 47 c-50 64 -190 149
-498 303 -140 70 -263 136 -273 145 -15 15 -120 279 -156 391 -18 57 -116 237
-186 342 -106 162 -175 247 -258 323 l-72 66 -1 58 c-2 74 -44 170 -104 235
-40 43 -42 47 -28 68 73 110 207 230 313 278 142 65 236 80 480 75 121 -2 202
-10 280 -25z m583 -42 c26 -6 58 -18 72 -27 45 -27 120 -85 120 -93 0 -4 -39
13 -88 37 -100 52 -181 70 -268 60 -62 -6 -114 1 -114 15 0 20 209 25 278 8z
m-1940 -205 c45 -11 20 -20 -30 -11 -76 14 -197 -7 -250 -42 -42 -29 -98 -101
-98 -129 0 -14 -2 -14 -10 -1 -29 45 14 121 92 161 67 34 204 44 296 22z
m-400 -228 c44 -85 181 -216 278 -267 72 -38 190 -78 229 -78 14 0 37 -15 58
-39 44 -49 146 -200 179 -266 57 -111 108 -329 108 -457 0 -96 -45 -293 -105
-453 -57 -155 -59 -165 -60 -301 l0 -132 42 -83 c24 -45 42 -83 40 -85 -3 -2
-182 -41 -322 -70 -66 -13 -151 -30 -188 -38 l-69 -14 7 26 c27 105 33 286 14
402 -22 141 -127 390 -212 506 -68 93 -217 197 -552 388 -259 147 -295 171
-358 239 -96 103 -183 296 -194 429 l-6 68 -49 -29 c-118 -68 -241 -212 -298
-351 -30 -71 -37 -79 -45 -47 -9 33 53 153 128 252 173 228 589 384 1192 449
72 8 135 14 140 15 6 0 25 -28 43 -64z m-1733 -505 c4 -6 -9 -10 -33 -10 -68
0 -183 -75 -218 -142 -27 -53 -12 -199 56 -538 27 -136 44 -198 76 -275 14
-34 -22 1 -40 40 -37 78 -108 401 -131 599 -15 129 -15 142 0 182 19 51 69 98
139 130 53 25 140 33 151 14z m4900 -264 c56 -26 123 -95 154 -159 11 -23 23
-71 27 -107 8 -77 -6 -71 -25 10 -24 101 -86 182 -172 225 -45 23 -72 55 -46
55 7 0 35 -11 62 -24z m-3870 -401 c56 -6 152 -41 141 -52 -3 -3 -48 3 -101
12 -123 22 -244 17 -283 -12 -15 -11 -32 -36 -39 -55 -25 -76 -71 -720 -60
-857 l4 -54 -20 24 c-18 23 -19 35 -14 234 5 190 11 267 48 585 14 118 26 144
81 164 70 25 90 26 243 11z m2221 -227 c23 -15 138 -75 255 -133 315 -157 425
-222 459 -269 30 -41 33 -61 5 -33 -35 35 -203 129 -439 246 -247 122 -326
174 -358 236 l-11 20 24 -21 c13 -11 43 -32 65 -46z"/>
<path d="M3470 2826 c-118 -26 -203 -104 -202 -187 1 -82 126 -213 246 -258
85 -32 242 -47 329 -31 150 26 237 101 237 203 0 62 -40 113 -134 172 -81 50
-156 78 -274 101 -87 17 -127 17 -202 0z"/>
<path d="M3806 2228 c-14 -22 -20 -48 -17 -76 0 -7 26 -25 57 -39 52 -23 57
-24 72 -9 15 15 15 19 -1 49 -20 38 -74 97 -87 97 -5 0 -16 -10 -24 -22z"/>
<path d="M3645 2144 c-5 -14 -30 -29 -91 -52 -46 -18 -93 -32 -103 -32 -51 0
-52 -8 -5 -103 24 -50 44 -99 44 -109 0 -28 26 -32 75 -14 82 32 145 115 145
191 0 35 -20 93 -40 117 -19 23 -20 23 -25 2z"/>
<path d="M4265 2093 c-62 -26 -180 -108 -214 -150 -85 -103 -136 -252 -128
-374 14 -212 169 -327 427 -318 122 5 187 35 281 128 90 91 129 172 136 283
12 191 -69 340 -226 415 -72 35 -213 43 -276 16z"/>
</g>
</svg>
